<svg xmlns="http://www.w3.org/2000/svg" width="32" height="32" viewBox="0 0 32 32">
  <!-- Base circular document shape -->
  <path 
    d="M16 2
       A14 14 0 0 1 30 16
       A14 14 0 0 1 16 30
       A14 14 0 0 1 2 16
       A14 14 0 0 1 16 2z" 
    fill="white"
  />
  
  <!-- Pie chart (4 quarters) -->
  <circle cx="10" cy="10" r="3.5" fill="none" stroke="#eee" stroke-width="2"/>
  <path 
    d="M10 10
       L10 6.5
       A3.5 3.5 0 0 1 13.5 10
       Z" 
    fill="#007bff"
  />
  <path 
    d="M10 10
       L13.5 10
       A3.5 3.5 0 0 1 10 13.5
       Z" 
    fill="#28a745"
  />
  <path 
    d="M10 10
       L10 13.5
       A3.5 3.5 0 0 1 6.5 10
       Z" 
    fill="#dc3545"
  />
  <path 
    d="M10 10
       L6.5 10
       A3.5 3.5 0 0 1 10 6.5
       Z" 
    fill="#ffc107"
  />

  <!-- Bar chart -->
  <rect x="17" y="8" width="2" height="4" fill="#007bff"/>
  <rect x="20" y="7" width="2" height="5" fill="#007bff"/>
  <rect x="23" y="6" width="2" height="6" fill="#007bff"/>
  
  <!-- Checkmarks and lines -->
  <path 
    d="M8 18l2 2 3-3" 
    stroke="#28a745" 
    stroke-width="2" 
    fill="none" 
    stroke-linecap="round"
  />
  <path 
    d="M8 23l2 2 3-3" 
    stroke="#28a745" 
    stroke-width="2" 
    fill="none" 
    stroke-linecap="round"
  />
  
  <line x1="17" y1="19" x2="25" y2="19" stroke="#6c757d" stroke-width="2"/>
  <line x1="17" y1="24" x2="25" y2="24" stroke="#6c757d" stroke-width="2"/>
</svg> 